<?xml version="1.0" encoding="UTF-8"?><svg id="Layer_2" xmlns="http://www.w3.org/2000/svg" viewBox="0 0 11619.93 1868"><defs><style>.cls-1{fill:#fff;}</style></defs><g id="Layer_1-2"><path class="cls-1" d="M2672.31,1680.17l-480.21-1430.63h306.56l349.8,1099.91,347.12-1099.91h308.57l-482.31,1430.63h-349.53Z"/><path class="cls-1" d="M4282.85,658.29h263.64v1021.88h-263.64v-120.59c-79.05,99.46-190.08,149.22-333.14,149.22s-253.1-52.12-350.51-156.36c-97.41-104.24-146.14-231.98-146.14-383.21s48.73-278.96,146.14-383.21c97.41-104.24,214.25-156.36,350.51-156.36,143.05,0,254.09,49.75,333.14,149.22v-120.59ZM3796.43,1376.69c53.15,53.82,120.59,80.71,202.32,80.71s149.53-26.89,203.35-80.71c53.82-53.82,80.75-122.96,80.75-207.46s-26.93-153.59-80.75-207.46c-53.82-53.77-121.57-80.71-203.35-80.71s-149.17,26.93-202.32,80.71c-53.15,53.86-79.72,123-79.72,207.46s26.57,153.64,79.72,207.46Z"/><path class="cls-1" d="M5460.07,658.29h263.64v1021.88h-263.64v-114.47c-64.05,95.4-165.56,143.1-304.51,143.1-111.75,0-204.06-37.47-276.95-112.42-72.89-74.94-109.33-178.47-109.33-310.67v-627.42h263.64v594.73c0,68.16,18.4,120.28,55.2,156.36,36.76,36.09,85.8,54.13,147.12,54.13,68.11,0,122.64-21.08,163.51-63.33,40.87-42.21,61.32-105.58,61.32-190.08v-551.81Z"/><path class="cls-1" d="M5964.89,1680.17V188.21h263.64v1491.95h-263.64Z"/><path class="cls-1" d="M7054.16,911.7h-230.91v425.1c0,35.46,8.84,61.32,26.53,77.67,17.73,16.35,43.59,25.55,77.67,27.6,34.08,2.05,76.28,1.74,126.71-1.03v239.12c-181.2,20.46-308.93,3.39-383.21-51.09-74.27-54.49-111.34-151.9-111.34-292.27v-425.1h-177.85v-253.42h177.85v-206.43l263.64-79.68v286.11h230.91v253.42Z"/><path class="cls-1" d="M7808.34,629.66c111.7,0,204.02,37.52,276.91,112.42,72.89,74.94,109.33,178.52,109.33,310.67v627.42h-263.64v-594.73c0-68.11-18.36-120.23-55.16-156.36-36.8-36.09-85.84-54.13-147.16-54.13-68.16,0-122.6,21.13-163.51,63.33-40.87,42.25-61.28,105.63-61.28,190.08v551.81h-263.64V249.53h263.64v523.22c64-95.35,165.52-143.1,304.51-143.1Z"/><path class="cls-1" d="M8550.23,535.64c-43.64,0-81.46-15.99-113.44-48.01-32.02-31.98-48.01-69.81-48.01-113.44s15.99-81.73,48.01-114.43c31.98-32.69,69.81-49.04,113.44-49.04s83.43,16.35,115.45,49.04c32.02,32.69,48.06,70.83,48.06,114.43s-16.03,81.46-48.06,113.44c-32.02,32.02-70.52,48.01-115.45,48.01ZM8419.41,1680.17v-1021.88h263.64v1021.88h-263.64Z"/><path class="cls-1" d="M9598.64,658.29h263.64v1021.88h-263.64v-114.47c-64.05,95.4-165.52,143.1-304.51,143.1-111.75,0-204.06-37.47-276.91-112.42-72.93-74.94-109.33-178.47-109.33-310.67v-627.42h263.64v594.73c0,68.16,18.36,120.28,55.16,156.36,36.8,36.09,85.84,54.13,147.16,54.13,68.11,0,122.6-21.08,163.51-63.33,40.87-42.21,61.28-105.58,61.28-190.08v-551.81Z"/><path class="cls-1" d="M11233.65,629.66c117.19,0,210.85,38.19,281.02,114.47,70.16,76.33,105.27,178.52,105.27,306.56v629.48h-263.64v-611.07c0-61.32-15.01-109.02-44.98-143.05-29.97-34.08-72.22-51.09-126.71-51.09-59.98,0-106.61,19.74-139.97,59.27-33.41,39.53-50.11,96.74-50.11,171.64v574.32h-263.64v-611.07c0-61.32-15.01-109.02-44.93-143.05-30.01-34.08-72.26-51.09-126.71-51.09-58.6,0-105.27,19.74-140.02,59.27-34.75,39.53-52.12,96.74-52.12,171.64v574.32h-263.64v-1021.88h263.64v108.31c61.32-91.25,156.01-136.94,284.1-136.94s217.95,49.08,277.94,147.16c68.11-98.08,169.63-147.16,304.51-147.16Z"/><polygon class="cls-1" points="0 406.99 461.41 636.24 450.48 1643.21 23.53 1431.08 0 406.99"/><polygon class="cls-1" points="450.48 1643.21 902.9 1868 1712.25 1239.05 1265.83 1017.24 450.48 1643.21"/><polygon class="cls-1" points="1264.4 1015.56 1712.89 1239.18 1702.41 213.2 1274.89 0 1264.4 1015.56"/></g></svg>